PathFileType	4	(X/Y/Z)	26_2_13_p0_0-514_filt_butterworth.trc
DataRate	CameraRate	NumFrames	NumMarkers	Units	OrigDataRate	OrigDataStartFrame	OrigNumFrames
60.0	60.0	5	27	m	60.0	0	514
Frame#	Time	RHip			RKnee			RAnkle			RBigToe			RSmallToe			RHeel			LHip			LKnee			LAnkle			LBigToe			LSmallToe			LHeel			Neck			Head			Nose			RShoulder			RElbow			RWrist			RThumb			RIndex			RPinky			LShoulder			LElbow			LWrist			LThumb			LIndex			LPinky			
		X1	Y1	Z1	X2	Y2	Z2	X3	Y3	Z3	X4	Y4	Z4	X5	Y5	Z5	X6	Y6	Z6	X7	Y7	Z7	X8	Y8	Z8	X9	Y9	Z9	X10	Y10	Z10	X11	Y11	Z11	X12	Y12	Z12	X13	Y13	Z13	X14	Y14	Z14	X15	Y15	Z15	X16	Y16	Z16	X17	Y17	Z17	X18	Y18	Z18	X19	Y19	Z19	X20	Y20	Z20	X21	Y21	Z21	X22	Y22	Z22	X23	Y23	Z23	X24	Y24	Z24	X25	Y25	Z25	X26	Y26	Z26	X27	Y27	Z27	
0	0.0	0.29877269190995465	0.7389567550166325	0.8359771696725857	0.28205131508839226	0.9620480513186169	1.2340389720290545	0.2541505212399733	1.224364777468876	1.652523255378738	0.24159492750825048	1.0210578050868233	1.7102305257539132	0.2869918032393389	1.058256256815048	1.7084931359732256	0.2453752292385881	1.2903950531446606	1.6814745911956792	0.07342581434205238	0.7647732704201972	0.8301631724676919	0.0816925534634703	0.9812043264413371	1.2279788474974216	0.07521878953492336	1.187478524664073	1.641498345000153	0.08394781412907891	1.0299035034842794	1.698725450239193	0.030743609252864866	1.0616572248594263	1.6886506042363687	0.09146643673755486	1.2505883735120809	1.6692680324841191	0.1878626182180422	0.5403993822199585	0.3253282795531998	0.20292899038123394	0.3672464559562984	0.11712072383301395	0.1762022913519217	0.339928456709299	0.26763192261725405	0.3532537164809856	0.5222744267826229	0.4269590789791933	0.3889418524293354	0.5909341360022031	0.7004849170182748	0.2537774539345527	0.6408287450348829	0.9095751641818945	0.17296827528491365	0.6466845471206252	0.9879423706516047	0.16958069865336173	0.6517856735344575	0.9996064397944483	0.1708330360254951	0.6552739460041692	1.0027629927052837	0.019685288385315955	0.527735263675009	0.4194005497644369	0.006650419595579336	0.6195964533287087	0.6786372779878294	0.11264786496972223	0.6150294391725779	0.9075943550007897	0.19327834469945288	0.6218439010145567	0.9547954822645722	0.1952353132333948	0.6404882082162379	0.996327509488347	0.17059973094788264	0.6554060188868445	1.0147359199280934
1	0.0166666666666666	0.29902230502898736	0.739857326358915	0.8369754985192832	0.2820859907120228	0.9620241418353235	1.233999354056335	0.2542611364264589	1.2227480338316332	1.6552454861845611	0.24108366983277058	1.0221888629944993	1.7125261940676917	0.2869325680737909	1.0580483965355267	1.7084912903693892	0.24705424739206427	1.2965142315807834	1.6824486005389707	0.07345730469575987	0.7648512619688284	0.8299972759101897	0.08424744573462156	0.9817402661882731	1.2279858691029648	0.07522867057327916	1.187193332731283	1.6415754310144322	0.08486893861885672	1.0379499322477965	1.7029781669725172	0.031113769234687155	1.0602073240348346	1.6884812419647106	0.09165248816278741	1.2504993674769564	1.6692328387767144	0.18781881240849846	0.5404435786436095	0.3254508273645618	0.20314731090839683	0.36680331393887067	0.11724954577731127	0.17621536461520695	0.3398426616575991	0.26761021476474944	0.35126003765845837	0.5221283576747824	0.42695967026914383	0.38570124627492813	0.5878015395543132	0.6991983090713006	0.25581139153111637	0.632613335765212	0.9103435366266008	0.1730127607042888	0.6466848967363723	0.9879374437484301	0.16984575072042835	0.6530259465781689	1.0012979782060656	0.17082753625298797	0.6551768581703715	1.002934625138975	0.019711762815000897	0.5279188396114423	0.41933063621669886	0.00763274156985284	0.6159244794185906	0.6791515406546775	0.11253820912005677	0.6151578964029815	0.9076006699070976	0.19622427763595585	0.6223692717518243	0.9547530400224371	0.19521351646127674	0.639499708766906	0.9962298102241987	0.16879829019631543	0.6498047055174286	1.0172206968434798
2	0.0333333333333333	0.2991380058797074	0.7402261686775293	0.8373888495761417	0.282110026362124	0.9620140916779345	1.2339136849324426	0.25434118504133324	1.2242826878304787	1.6567549375428825	0.24092375673335992	1.0225758446406024	1.7131944660523595	0.28686410079336333	1.0580462445042622	1.7085071035171704	0.2486423661086283	1.3023671405447692	1.6832510541342045	0.07347975729285358	0.7648696076167624	0.8298557507717781	0.08580244382647284	0.9820503571666721	1.2280014755833506	0.0753854963756365	1.1867754329456774	1.6411666985883175	0.08572072465195783	1.0427707129285808	1.7048917883008903	0.03170009102604307	1.0598798176082402	1.688320818516173	0.09184195058563997	1.2506149718362196	1.6692275318956908	0.1877492841124061	0.540438042718502	0.3254603143705467	0.20332855223711202	0.36653020307690815	0.11734896041279627	0.17622085992904868	0.3397912072089836	0.2675912632297963	0.3507678987746315	0.5221354814826784	0.42694501597959433	0.3843081610446063	0.5874177194537717	0.698323440029924	0.257036895885843	0.627636442751922	0.9108095614482925	0.17304777698437657	0.6467018359093997	0.9879168203644235	0.17009650351528202	0.6542317379810987	1.002950456352955	0.17082128407387337	0.6551223456487019	1.0030139408075844	0.01973624524145076	0.5280023685430295	0.4193056749499078	0.008070310408693774	0.6141729953097927	0.6796594264223718	0.11247697835914128	0.6151944851181441	0.9076146893485201	0.19791226512535104	0.622723864585945	0.9547231523423116	0.19518722598442448	0.6390545090271915	0.9961880990617183	0.1683285161817122	0.6484361944148981	1.0186438822641202
3	0.05	0.2990867632484471	0.7398896472774755	0.837012769257351	0.28211964789032173	0.9620142375666074	1.2337858747384016	0.2544287025403516	1.231387221138494	1.6570449565517302	0.24110250720409943	1.022247789559304	1.7123116918846946	0.28680723614568493	1.0582804667620276	1.7085569866651964	0.24973253618992397	1.306483462820024	1.6836862506618968	0.07348872187087442	0.7648004342582881	0.8297356484878285	0.08628574148256327	0.9821389120819481	1.228035352330423	0.07573879450341066	1.1860970041393786	1.6399914528578292	0.08649045866091226	1.0449334032988706	1.7047216486451207	0.03242010452586932	1.0620931661332458	1.688259634785966	0.09203397551534416	1.2510752183351663	1.6692679923566236	0.18768269722530012	0.5403049846901498	0.32513116431336414	0.20345102371930832	0.36645111999892144	0.11740680590830062	0.17621612934329392	0.3397839367805776	0.2675728123077037	0.3517034085767616	0.5223030000600684	0.42691799059263386	0.38495714037380196	0.5903366471796564	0.6976552976199688	0.25738849433041777	0.6261552325254987	0.9109397815160591	0.17308491724919053	0.6467004027622585	0.9878696943298911	0.17027995225834858	0.6550832625267123	1.0041477315966931	0.17081808545519386	0.6551197304060918	1.002991321568397	0.019759166940454518	0.5279876223197009	0.41931252432278493	0.00824564799624085	0.6140750992098287	0.6798949417177556	0.1124943661221936	0.6150342720767922	0.907642617951266	0.19795093756323318	0.6227986287867885	0.9547094784653276	0.19515388979425458	0.6391734549610585	0.9962111137300211	0.1691325550439656	0.651096581363126	1.0189400608899828
4	0.0666666666666666	0.29896592054510057	0.7392410089687672	0.8362883196535267	0.2821189801903596	0.9620170713081607	1.2336808021195882	0.25458235500243054	1.2431021954245656	1.657000017887543	0.24135414831087693	1.0217831894908422	1.7111518642270298	0.2867916461054836	1.0586074320549537	1.7086414928566511	0.25013772498536324	1.3081384688335642	1.6837729428820318	0.07348537608836542	0.7646838782401931	0.8296519890939942	0.0862433420052845	0.9821492832951639	1.2280862493234377	0.07617050373724862	1.1852811928741203	1.6383809955095292	0.08687209373365963	1.046422228567962	1.7041389939945701	0.03294048446654785	1.0673836650501887	1.6884936128367474	0.09221033398842375	1.2517779505670137	1.6693445037359005	0.1877681177179432	0.5400034577404105	0.32429388655629077	0.20351611339578582	0.36648297207936464	0.11742377644698208	0.17620523781970568	0.3398043713436331	0.26755028102343026	0.3528850101431959	0.5225060319574739	0.4268936690131798	0.38663671572015373	0.593376543570789	0.6970401196716755	0.2573112097231527	0.6263710871315957	0.9109007332431063	0.17313313223791793	0.6466439037136845	0.9878082447100098	0.1703543307681576	0.6553131917421955	1.004545119249767	0.17081512445362138	0.6551411396364714	1.0029270490976954	0.019778727429408137	0.527939504980939	0.4193145943746378	0.008383698478801214	0.6129670506388101	0.6794277927933479	0.11256345304804766	0.6147201500800288	0.9076820470945566	0.19668931795127945	0.6225327938580503	0.9547162986760103	0.19509726425940888	0.6394866524654587	0.9962755254852206	0.17018209434657922	0.6545015369235876	1.0187270624594185
